<svg xmlns="http://www.w3.org/2000/svg" width="24" height="24" viewBox="0 0 24 24" fill="none" stroke="currentColor" stroke-width="2" stroke-linecap="round" stroke-linejoin="round">
  <!-- Рука, держащая судьбу -->
  <path d="M11 15h2a2 2 0 1 0 0-4h-3c-.6 0-1.1.2-1.4.6L3 17"/>
  <path d="m7 21 1.6-1.4c.3-.4.8-.6 1.4-.6h4c1.1 0 2.1-.4 2.8-1.2l4.6-4.4a2 2 0 0 0-2.75-2.91l-4.2 3.9"/>
  <path d="m2 16 6 6"/>
  
  <!-- Иконка D20 (вместо верхней монеты) -->
  <path d="M17.5 3L21 6.5L17.5 10L14 6.5Z" />
  <path d="M14 6.5H21M17.5 3V10" stroke-width="1" opacity="0.7"/>
  
  <!-- Магическая искра/вспышка (вместо нижней монеты) -->
  <path d="M6 3v4M4 5h4M3.5 3.5l1.5 1.5M8.5 3.5l-1.5 1.5" />
</svg>
